<svg width="24" height="24" viewBox="0 0 24 24" fill="none" xmlns="http://www.w3.org/2000/svg">
<path fill-rule="evenodd" clip-rule="evenodd" d="M9.42847 2.57141C6.11476 2.57141 3.42847 5.25771 3.42847 8.57141V21.4286H14.5713C17.885 21.4286 20.5713 18.7423 20.5713 15.4286V8.57141C20.5713 5.2577 17.885 2.57141 14.5713 2.57141H9.42847ZM9.39785 3.9512C6.91257 3.9512 4.89785 5.96592 4.89785 8.4512V20.0488H14.6019C17.0872 20.0488 19.1019 18.034 19.1019 15.5488V8.4512C19.1019 5.96592 17.0872 3.9512 14.6019 3.9512H9.39785ZM13.6942 14.4518H8.51152C8.07116 14.4518 7.71418 14.0948 7.71418 13.6545C7.71418 13.2141 8.07116 12.8571 8.51152 12.8571H13.6942C14.1346 12.8571 14.4916 13.2141 14.4916 13.6545C14.4916 14.0948 14.1346 14.4518 13.6942 14.4518ZM8.51152 11.0232H15.6876C16.128 11.0232 16.4849 10.6663 16.4849 10.2259C16.4849 9.78554 16.128 9.42855 15.6876 9.42855H8.51152C8.07116 9.42855 7.71418 9.78554 7.71418 10.2259C7.71418 10.6663 8.07116 11.0232 8.51152 11.0232Z" fill="white"/>
</svg>
