<svg width="24" height="24" viewBox="0 0 24 24" fill="none" xmlns="http://www.w3.org/2000/svg">
<path fill-rule="evenodd" clip-rule="evenodd" d="M2.69418 12C2.69418 12.5222 3.11864 12.9466 3.64083 12.9466L11.0534 12.9466V20.3591C11.0534 20.8813 11.4778 21.3058 12 21.3058C12.5222 21.3058 12.9466 20.8813 12.9466 20.3591V12.9466L20.3592 12.9466C20.8814 12.9466 21.3058 12.5222 21.3058 12C21.3058 11.4778 20.8814 11.0533 20.3592 11.0533L12.9466 11.0533L12.9466 3.64079C12.9466 3.11859 12.5222 2.69414 12 2.69414C11.4778 2.69414 11.0534 3.11859 11.0534 3.64079L11.0534 11.0533L3.64083 11.0533C3.11864 11.0533 2.69418 11.4778 2.69418 12Z" fill="white"/>
<mask id="mask0" mask-type="alpha" maskUnits="userSpaceOnUse" x="2" y="2" width="20" height="20">
<path fill-rule="evenodd" clip-rule="evenodd" d="M2.69418 12C2.69418 12.5222 3.11864 12.9466 3.64083 12.9466L11.0534 12.9466V20.3591C11.0534 20.8813 11.4778 21.3058 12 21.3058C12.5222 21.3058 12.9466 20.8813 12.9466 20.3591V12.9466L20.3592 12.9466C20.8814 12.9466 21.3058 12.5222 21.3058 12C21.3058 11.4778 20.8814 11.0533 20.3592 11.0533L12.9466 11.0533L12.9466 3.64079C12.9466 3.11859 12.5222 2.69414 12 2.69414C11.4778 2.69414 11.0534 3.11859 11.0534 3.64079L11.0534 11.0533L3.64083 11.0533C3.11864 11.0533 2.69418 11.4778 2.69418 12Z" fill="white"/>
</mask>
<g mask="url(#mask0)">
</g>
</svg>
