<svg width="2" height="20" viewBox="0 0 2 20" fill="none" xmlns="http://www.w3.org/2000/svg">
<path d="M1 2C1.55228 2 2 1.55228 2 1C2 0.447715 1.55228 0 1 0C0.447715 0 0 0.447715 0 1C0 1.55228 0.447715 2 1 2Z" fill="#4F755B"/>
<path d="M1 8C1.55228 8 2 7.55228 2 7C2 6.44772 1.55228 6 1 6C0.447715 6 0 6.44772 0 7C0 7.55228 0.447715 8 1 8Z" fill="#4F755B"/>
<path d="M1 14C1.55228 14 2 13.5523 2 13C2 12.4477 1.55228 12 1 12C0.447715 12 0 12.4477 0 13C0 13.5523 0.447715 14 1 14Z" fill="#4F755B"/>
<path d="M1 20C1.55228 20 2 19.5523 2 19C2 18.4477 1.55228 18 1 18C0.447715 18 0 18.4477 0 19C0 19.5523 0.447715 20 1 20Z" fill="#4F755B"/>
</svg>
