<svg width="18" height="18" viewBox="0 0 18 18" fill="none" xmlns="http://www.w3.org/2000/svg">
<path fill-rule="evenodd" clip-rule="evenodd" d="M14.2597 11.3377C13.023 11.3395 11.9213 12.1197 11.5091 13.2857H6.1753C5.2608 13.2857 4.51945 12.5444 4.51945 11.6299C4.51945 10.7154 5.2608 9.97402 6.1753 9.97402H11.8246C13.815 9.97402 15.4285 8.3605 15.4285 6.37012C15.4285 4.37975 13.815 2.76623 11.8246 2.76623H6.49088C6.0165 1.42446 4.64445 0.619599 3.24179 0.860258C1.83913 1.10092 0.813843 2.3171 0.813843 3.74025C0.813843 5.16341 1.83913 6.37959 3.24179 6.62025C4.64445 6.86091 6.0165 6.05605 6.49088 4.71428H11.8246C12.7391 4.71428 13.4805 5.45563 13.4805 6.37012C13.4805 7.28462 12.7391 8.02597 11.8246 8.02597H6.1753C4.18492 8.02597 2.5714 9.63949 2.5714 11.6299C2.5714 13.6202 4.18492 15.2338 6.1753 15.2338H11.5091C12.0046 16.6353 13.4734 17.4414 14.9218 17.1068C16.3702 16.7722 17.3365 15.4034 17.167 13.9266C16.9976 12.4497 15.7463 11.3355 14.2597 11.3377ZM3.74023 4.71428C3.20229 4.71428 2.7662 4.27819 2.7662 3.74025C2.7662 3.20231 3.20229 2.76623 3.74023 2.76623C4.27817 2.76623 4.71426 3.20231 4.71426 3.74025C4.71426 4.27819 4.27817 4.71428 3.74023 4.71428Z" fill="white"/>
</svg>
